<?xml version="1.0"?>
<svg xmlns="http://www.w3.org/2000/svg" width="916.992" height="441.918" viewBox="0 0 916.992 441.918">
    <defs>
        <style>
            .cls-1{opacity:.25}.cls-2{fill:#d9dce0}.cls-3,.cls-4,.cls-5,.cls-6,.cls-7,.cls-8,.cls-9{fill:#ff5a24;stroke:rgba(255,90,36,.09)}.cls-3{stroke-width:15px}.cls-4{stroke-width:10px}.cls-5{stroke-width:9px}.cls-6{stroke-width:5px}.cls-7{stroke-width:4px}.cls-8{stroke-width:7px}.cls-9{stroke-width:8px}.cls-10{stroke:none}.cls-11{fill:none}
        </style>
    </defs>
    <g id="Group_35383" data-name="Group 35383" transform="translate(-501.513 -1646.117)">
        <g id="Group_35338" class="cls-1" data-name="Group 35338" transform="translate(354.374 1558.727)">
            <path id="Path_86243" d="M553.742 287.622l3.581 8.948.22 10.167.006.406.017.07.046.215.331 1.59.5 2.333 4.712 7.115 2.176 9.012 9.651 8.275 1.532-.894-3.081-4.753-.255-6.958-4.88-5.136-4.411-2.153-2.431-6.3-.064-.18-1.874-2.478.226-1.172 2.078-11.247 2.078-.836 4.422 4.561 4.086 4.23 2.327 2.054 2.431 6.093 3.627-2.658 1.677-3.383 2.844-1.468 3.615-1.851.116-7.167.029-1.915-4.265-5.211-6.2-7.562-1.393-1.811-1.033-1.352.424-4.7.609-.673 4.492-4.672 4.875.7 2.948.447 6.662-3.012 7.875-2.223 1.126-.981 2.107-1.845 3.964-4.033 1.718-1.753-.488-4.2 2.9-5.113 1.219-6.064-4.173-1.654-.226-6.273-6.5-6.372-3.111-3.058 3.65-4.451 2.977-3.633-6.227-1.561-2.42 2.739-2.327-2.611-2.057-.31-2.594-1.816-.342-2.5 2.884-1.01 1.729-2.414 1.567-2.2.447-.627 3.122.8.035 2.7.035 2.385.017 1.613 1.254-.888 1.387-.987 3.029-2.176 4.811 1.137 1.149 4.109h.017l1.944.975 1.932.958.134.325.94 2.118 3.981 8.995 6.83-3.459-3.493-4.643-3.459-4.579-3.058-4.039-.975-1.277 3.894-3.818-.784-5.194 4.642-1.567 3.7-.1h.331l.482-.923 1.985-3.743 2.489-12-4-9.117-2.344-4.2-2.379-4.207-5.995-2.739-.662-.29-.888-.4-2.24 2.571-4.938-3.482-1.753-.232-3.145-.412.748-1.88 4.985-12.494 8.676-.139 2.257-.046 2.693-.041.348-.389 1.236-1.37 7.382 2.391 4.347-.075.226-7.474.035-.012 2.118-.7 2.037-.667 4.236 3.012 2.867.516.563-5.246 4.88.122.435 5.751-1.335 4.335-2.452 7.959 10.132 9.169 7.736 7.016 1.95 1.753-1.584-8.7-1.184-6.47-.47-2.64-.133-.83-5.113-3.25-2.414-5.025-.192-1.671 7.782-.429 3.325-.186 3.894-.215 1.474-3.093-3.459-8.9 3.319-1.3-1.967-3.424 1.184-1.341 4.8 1.451 1.735.528 4-2.048-9.209-2.965-3.668-1.19-4.381-1.416-7.945-2.571h-.07l-5.768-.708-13.4-1.631-4.149-.5 3.627 2.751 1.741 1.306-1.961-.337-10.208-1.718-5.246-1.248-8.774.493-2.849-1.12-2.907-1.149-1.7-.667-1.393-.012-4.329-.046-8.641-.081-.783-.186-8.241-1.938-1.741-.412.337-.731.023-.041-.087-.006-5.055-.888-.7-.122-2.9 1.782-3.342-1.155s.615-.685.888-.754c-.9 0-9.221-.534-9.221-.534l1.4 3.151-2.82.853-12.726-1.422-.691 2.461-2.287-.923-2.965-.8-3.54-.963-1.973-1.439-.574-1.66-11.187-1.914-.824 1.538-.679-.1-8.211-1.149-1.84-.261-7.161.482-3.424.226-7.486-2.089-.18.128-2.931 2.107-6.157 1.561.128-.54 8-5.176 2.089-1.346-3.267-1.172-7.242-2.606-8.264.812 1.416-1.317-7.173-.517a21.7 21.7 0 0 1 2.553-.917c.174.046-6.441-.319-6.441-.319l-1.178 1.491 3.348 1.4-3.488 1.155-1.695.006-14.311.029-2.762.911-3.238 1.074 1.6 3.61-10.423 1.01-2.373.226 2.182 2.594 1.741.366 3.047.627.54.644-3.023-.1-1.463-.052-4.068-.911-1-.226-4.474 1.178 4.857 1.671 2.878.987-2.994-.482-6.03-.975-.406-2.223-4.138 2.031 3.615 2.205 1.538 3.923 4.225.122.853.029 6.169 3.3-.226 1.735-7.318-2.844-1.079-.418.911 1.137 1.1 1.37-.563 1.59-.447 1.271-.093.284-5.008 1.857-1.985-.377-2.008-.389-1.3-.627.191-.644 4.109.516 1.457-.319.11-.023.017-.058.894-2.623.522-1.619.2-.58-1.6-.522-3.6-4.695.278-.5-3.581-2.7.8-2.437-8.641-1.613-.238.412-2.466 4.486 1.712 1.52.836 2.031 6.122 2.942-.621 1.718-13.5-3.83-5.762-.255 1.625 2.077-.54.725-.841 1.126-3.035-1.3-8.107 1.857-3.72-.186 1.724-2.02-2.455.54-.766.174-.278.064-.54 1.161-.778-.592-5.658 1.776v1l-2.333.186-.778 1.892-4.7-1.033-.65-1.294 3.006-1.068-6.209-1.474-1.532-.371 1.613 1.248.783.6-.435 2.136 1.642.783v3.285l-1.451-1.12-.232-.186-1.869-.366-5.9 2.6 2.478 2.617-.783.551-7.341-1.9-1.242 1.062 4.248 1.967-1.712 1.4-2.124-1-4.352-1.578-1.666-2.5.412-1.068-5.82-3.25-.824-1.05 17.45 3.633 3.4-2.327-3.1-3.639-14.723-3.876-1.613.551-7.968-1.66-2.211-1.375 4.689-.662-4.689-1.242-1.613 1.48.615-2.153-2.635.081.244 1.317-.325.041-1.044.11.209-.888.076-.377-.267.215-.36.261-.528.406-2.287 1.729 1.637-2.664.215-.354-1.149.395-4.468 1.561.238-1.132-3.221.313-.273 1.973-2.037 1.468-2.693-.847-.18-.824-3.644 1.184-.238 1.422-3.006 2.4-9.192 9.465-4.973 3.459-2.855.221-.557.3-6.592 3.621-1.184.65.064 2.5 2.646.58 2.344.516-2.095.116-3.348.162 2.809 5.263-1.66 1.776 4.2 2.4 1.666-.679 5.287-2.159.458-1.787.888-.783 5.4 10.283-.5.511.11.458.754 2.722 3.209-.215.168-1.3 4.08-.812.87-2.884.842-2.82-1.19-2.107 3.813-1.068 2.153-2.739-3.058-2.635-.946-.818-.244-2.7 2.524-3.842 3.755-1.747 1.781-.83.963-1.671-.354-1.312 2.652-2.211 4.544-.319 2.008 2.629v.006l-1.538.406-4.718 4.8-1.863.087-.534 1.37 1.265 3-.471 3.24 4.486 2.368 3.006-.656 10.266-2.217.11 1.393 3.772 1.358-5.374.673-.035 1.079-8.8.522-1.544.1-.029 1.207 1.491 2.118.65.905-.308 2.838-.435-.244-2.722-1.544-2.188-.418-1.758 2.571.284 4.66.087 1.6-2.907.354-.284.482-.458.749-2.5.151-.72-1.021-.1-.139-.453.122-11.009 2.745-1.5-1.253.563-.853-5.681 1.288-2.072-1.433-1.254-.859-.36-.255-.023-.087-.348-1.4-.081-.313 3.023-3.737-1.311-.157v-3.215l-3.772 2.182-1.625.946 1.4 6.006.627 2.687-1.01.244v1.561h-1.451l-.87-.969-5.728 1.294.244 1.961-.679.737-.83-.807.47-.859-1.294.226-1 2.327-.145.348-6.738 3.11-.6 3.023-2.025.7-.47.157-1.033 1.132-3.279.395-.5-1.108h-1.387l.517 2.96-2.785.708-2.727-.708-3.082 1.01.064 1.016 6.813 3.789 2.153 2.861.5 1.312-.714 1.578-.517 4.863-2.205 1.869-12.436-.882-4.086-.278-.412.969-2.913 1.335 1.358 2.141-.8 1.544.11 4.155-2.3 5.536-.075 1.764 1.48.157.133 5.3 5-.72 1.985 1.677.574 2.066 1.874-.8 1.863-1.056 3.076-.035.406-.017 1.9-.47 2.675-.662 2.727-1.544 3.3-4.468-.772-1.271-.081-2.362 1.811-2.292 1.12-1.532 4.776-1.956 2.008-2.432-.441-2.739 1.346-1.4 4.335-.035 2.281 1.764 2.118-.917 4.718-3.569 2.054-.186 2.919 1.787.58 2.182 1.294 2.3 8.734 5.763 1.695.035.685 1.155.795 1.828 1.428.279.284.754.969 2.553-.841 2.252-.192 1.1.731.3 1.027-1.4 1.613-2.072.447-1.578-1.23-.691-.429-1.016-.2-.476.963-1.509 1.567.041 1.416.981.308.209.035.023.975.679.133-1.219.041-.377-.516-.273-1.352-.7-1.41-.731-3.412-1.782.122-1.248-3.882-1.091-1.961-1.561-1.521-3.789-1.909-.54-1.532-1.7-.424-2.994.412-.592.551-.778 2.588-.354 1.19 2.994 1.567-1.532 1.2.94 1.474 2.693 1.985 1.375 9.738 6.726.093.07-1.039 4.138.615.609 4.724 4.689.1 1.451 5.31.888.528 1.132-5.327-.151 1.561 3.372 3.83 1.863.534-3.911 1.84-.749-3.406-3.406.621-1.544-1.236-3.836 3.157-1.05 8.113.29 5.229-1.265 3.018.47-.238.435-.557 1-.47.064-7.242.853-.679 1.874 1.973.418.6 2.368 1.509 5.937 4.939 2.652 3.505.075 1.544-1.892 6.6 2.815 1.59-.569 1.758-2.054 2.339.888 1.973-1.253.516-.331-.261.662-.7 1.845.029 1.4.917 2.762-3.865 12.848-3.546 1.526-1.108.476-.3-.493-.911-1.573L348 234.86l-1.132.226-1.718-.261-9.691-1.526-.65-1.445-4.851-1.068-1.433-1.9-8.5 1.132.308 4.2-.157.168-1.811 1.921-2.037.812-.07-.041-2.942-2.06-.569-.4-.627-.122-3.157-.557-.383-.191-1.6-.783-1.608-3.29-11.45-3.65-3.186-1.8 3.11-3.737-1.874-3.65-.279-2.078-1.764-2.019-3.72 1.665-4.625-.139-3.673.888-2.82-1.2-13.5 3.563-4.642 2.292-1.4.708-1.468-.876-.406.029-1.37.1-3.005.229-.215.012-1.393-1.462-2.49-.337-1.567 3.575-.511 1.161-6.25 4.068-.139.087-3.6 6.117.395 4.8-7.19 6.424-2.681.615-1.758 3.511-1.648 1.462-.876 2.675-.743 2.275-.6 1.77-.035.017c-.18.1-2.791 1.6-3.058 1.811s-4.114 8.885-4.114 8.885l2 3.8-.412 2.35 1.323 4.033-1.845 5.664-.987 3.076-1.869 3.424.9 2.124 1.155 2.751-.25 4.265 3.331 2.664 2.907 3.186 3.227 3.517 1.219 5.8.337.244 6.645 4.9 9.407 6.54 6.79-2.942 5.89-.383 5.345 1.05 5.008-1.851 7.538-2.8.395-.145 6.035 1.074.174.284 2.263 3.946.934 1.619 6.5-.766 4.672 1.892 1.648 4.77-3.161 10.548.279.911 1.016 3.18 5.745 8.124.139.2 2.443 6.534 3.575 7.364-.882 2.031-.4.963 2.629 7.579-3.871 6.917-2.768 13.986.807 1.642 7.678 15.756-.064 3.174 1.973 12.657 1.19 2.078 3.923 6.854 3.174 6.616-.487 3.435-.041.25 2.205 5.745L326.415 457l6.494.43.923-.284 5.861-1.869 9.656-8.13 1.834-3.018 2.112-3.465 2.78-2.107 2.49-7.538-.565-3.442 2.989-1.317 4.289-1.88.186-2.031.482-5.078.186-1.979-1.845-5.113 3.726-4.457 4.915-5.414 5.85-2.466 4.2-6.888-.8-8.7.679-4.074-2.159-3.726-1.451-6.941v-.116l.366-4.3-1.642-3.633.325-.679 4.37-9.32 3.993-3.273 7.805-11.618 5.327-2.368 6.8-8.519 5.432-11.113 1.477-5.074.621-2.13 1.224-4.045-2.478-1.486-2.9 2.629-4.828.957-4.724.929-5.7.963-3.221-2.82-1.793-1.573-.064-.052 1.468-3.111-.279-.215-10.1-8.119-.749-.6-2.373-7.886-5.362-5.281-.87-5.855-.633-4.277-4.457-4.022v-.081a24.148 24.148 0 0 1 .186-3.319c.186-.633-6.494-12.146-6.494-12.146l-3.615-8.014 3.726 5.525 2.884.8 7.614 9.691 5.385 6.865 1.747 6.476.778 2.861 8.832 11.055 4.19 15.286.035.116.151.006 1.845.07 1.271.07 1.254.052 19.528-9.036 1.851-2.617.766-.464 8.751-5.263 2.913-1.114 1.207-2.588.354-.766 1.434-3.076 1.694-1.782 4.457-5.971-4.468-4.248-4.776-1.242-1.66-3.615-.783-2.582-5.345 4.271-1.48 1.2-6.558-.07-2.791-2.153-.766-2.3-1.155-3.389-8.966-10.26.209-.18 3.586-3.058 5.675 4.387.731.807 3.174 3.557.319.354 2.984 1.379 5.989 2.739 3.285-1.358 1.753-.72 1.34 2.269.11.186 3.784 2.687 2.716.435 5.53.859 8.229-.5h7.666l4.474 4.341 2.043 1.961 2.048 2.17 4.12-.708-2.588 2.739-1.694.441 3.766 2.379 3.093 1.967 1.811-.58.191-.064.789-4.666 2.356.644-.238 4.962-.168 3.064 4.451 13.62 1.335 4.091 5.815 12.918 4.178 9.244 1.932.534 6.32-8.38v-10.042l.331-8.014 5.7-4.173 2.7-3.035 5.345-6.035.708-.679 3.273-3.058 2.681-5.292 7.184-3.093 6.378 8.333.383.331 1.718 1.5.377.963 4.991 13.156 3.163.418 4.515-5.176z" class="cls-2" data-name="Path 86243" transform="translate(297.296)"/>
            <path id="Path_86244" d="M260.336 138.231l-.057-.2-.164.1-2.074 1.411.572 1.9-1.91 2.561-1.236.34.295 2.936-2.114 1.633-2.068.674-1.043 2.25-3.423-.012-2.907.669-.391 2.511-.351 3.355-.2 1.9 1.19 4.511-.731 1.729-2.346 3.531-1.258 2.17v3.548l1.18 3.352.125 2.069 2.783 2.658 1.326 1.043 4.891-2 1.864-2.839 3.967-11.873 2.589-7.22.776-4.925 1.106-2.086-.68-3.564.941-.476.742 1.258 1.36-2.3-.448-1.672z" class="cls-2" data-name="Path 86244" transform="translate(446.611 243.244)"/>
            <path id="Path_86245" d="M215.969 110.763l6.75-2.173 1.031.173.346.054.037-.156 1.042-3.615-.572-1.9 2.641-1.547-.963-1.7-.317-.972-1.868.408-.8-.8-3 .626-1.524 1.624 1.031.071.493.686-2.332 1.13-1.385-.793h-.808l-.739 1.13.977.277-.855 1.165 2.38.816-2.094 1.114.107.975-1.468 1.354z" class="cls-2" data-name="Path 86245" transform="translate(321.564 53.536)"/>
            <path id="Path_86246" d="M218.212 102.662l.338.581 1.368-.581.249.32-1.074 1.252-1.173 2.772-.145.306h.765l.054-.131 1.063-2.5.209.643 1.02-.261.045 1.323-.787 1.182-.581.884.264.9.422-.677 1.89.226h2.069l-.8 1.252.448.763h1.326l-.844 1.147.269 1.139-2.457.841-.875-.615-.72.391 1.06 1.859-.026.156-.269 1.253-2.239.564-1.309.522v.685l2.646-.034 1.417 1.06 1.539.277.807-.92 1.326-.216-.238.728-1.471.593-3.009.921-1.369 1.295-3.1 1.893 1.414.15 2.936-1.383.626.677 1.028-.227 3-1.38 2.842-.026 2.264.383h1.873l1.655-.887.572-.382.584-.391-.431-.147-1.5-.5.093-.618 2.086-1.425.289-.19.935-1.122-.212-1.25-.292-.113-1.159-.436-1.765.731-.938.051.065-.972.53-1.181-1.247-.567-1.213-.547 1.9.193-.06-.8-1.17-1.445-1.125-.644-.572-.337-.657-1.374v-1.547l-.785-.876-2.57-.643-1.369-.382 2.043-.992 2.354-2.729.091-.695.056-.4-.417-.071-1.839-.312-3.918.728.249-1.128 2.55-1.295.547-1.148.057-.105-.113.009-4.627.391-.572 1.938h-1.692l.034 1.374 1.074.366-1.278.643-1.184-1.723-1.462 1.121 2.389.85z" class="cls-2" data-name="Path 86246" transform="translate(330.268 44.759)"/>
            <path id="Path_86247" d="M395.113 187.621l-1.567-2.965-.209-1.335-1.579-.557-.766-2.246.116-2.872-1.857-1.288-.656 1.41-.905-2.153.435-1.468-1.41-2.652.888-.476a10.72 10.72 0 0 0-.5-1.4c-.11-.174-1.306-.215-1.306-.215l-1.724-.812-.377-1.567-2.849-1.433-.035-.894-.041-.557-.557-1.544 1.079-2.263-1.579-3.087s.139-2.437.191-2.664.325-2.588.325-2.588l-1.352-1.613-.992-.917-1.549.813-.691-.859.209-4.579-1-1.973-.145-.29-.5-2.333.07-2.066-.412-.865-1.288.638-1.427 4.718-2.548 10.318-.389 1.132-1.5 4.352-1.648 2.71-1.6-.052-1.114-.041-1.2-.963-1.317-1.045-1.666-.894-1.532-1.973-2.942-1.016-2.484-1.758-.957-2.06 1.236-1.544 1.2-1.869v-1.869l.952-.946.975.58.383-1.608.958-1.05.36-.894-2.658-1.236.667 1.317-.667 1.1-1.23-1.137-2.42-.192-2.379-.888-2.414-.586-.5-1.074-1.074 1.874-1.306 1.393-1.462-.075-1.2-.29-1.317.969-1.132-.325-1.283 1.909.226 1.161-1.967 1.625-.447.58-1.4 1.764h1.48l.65 1.062-1.172.789-1.613 1.114-.192-.847-1.979-.563-1.1 1.294.035-2.066-.958-1.695-1.961-1.677-.627 1.352-1.48.371-1.2 1.091-2.257.168.47 1.422-.975 1.538-.894-.29-1.335.731.574 2.49.139.574-2.188-.569-.992-.395-.209.261-.1.145-.209.3.366 1.34-1.422 2.257-.557-3.6-2.832 2.379-.894 1.6.47 2.281-.453.325-1.474 1.056-2.884 3.354-.47.522-3.789 1.242-3.111.47-3.023 1.613-2.571.325-7.208 3.377-.3.946-.308.928-1.068.65.435-2.524-1.387 1.143-.5 4.2-1.944 3 .064 1.12.046.812.493 1.457.813 2.391-.116.487-.337 1.3-.963.7-.72.928 1.074 13.167-1.288 8.264-1.416 1.648-1.242-.081-.795 2.014 2.379 2.269 4.207.911L283 220.4l2.124-1.863 2.112-.238.157-.134 2.536-1.927 9.314.708 4.242-2.548 3.186-1.915 10.771-2.693 1.271-.209 5.907-1 2.275 1.5 1.288.2.731.191 2.884.754a9.77 9.77 0 0 1-.087 1.9c-.122.261.209 1.288.209 1.288l.917-.162.076 4.863 1.491 1.706.557-1.967 2.727-2.136 3.325-2.089 1.631-2.571.1 2.194-1.039 1.584-1.793 1.41-1.839 3.2-2 .766v.54l2.588-.18.557-.459 1.335-2.9.5-.685.679 2.635-2.107 1.961-.412.708.917.18 2.82-1.381-.749 4.648-.54 3.314 1.967 1.956.244.244 3.505.615 2.8 1.428 4.167-3.18.975 2.524 2.577-.894 4.88-1.66 4.8-.313.035-.017 2.658-1.787 2.536-3.911 1.439-2.228 1.863-1.515 3.006-4.341 1.184-1.039 6.946-6.192 1.515-2.414 1.567-3.192 1.77-2.257 1.48-2.078.592-2.768-.1-1.654-.192-1.259 1.387-4.283z" class="cls-2" data-name="Path 86247" transform="translate(613.91 239.764)"/>
            <path id="Path_86248" d="M343.89 166.034l-2.31-2.112-.87-1.259-.9-.685-.714-.847-.882-.371-1.5-3.488-1.776-1.718-1.219-1.578-.035-.673 1.828-.743a2.719 2.719 0 0 0 1.074-.517.187.187 0 0 0 .075-.133 3.226 3.226 0 0 0-.7-1.387c-.07-.047-3.064-1.12-3.064-1.12l-1.648-.441-.046-.046-1.062-1.155.035-1.329-1.689-2.066-.157-.2-1.41-.749-5.037-2.623-2.716-.934-2.1-1.178-2.188-.813-2.919-.673-3.546-2.095-1.648-.47-.766.261-.615.2-.656 1.741-.865.644a9.351 9.351 0 0 0-1.12-.337l-.07-.029c-.29-.023-2.426 3.354-2.426 3.354l-1.1.662-.725-.075-.592-.911-.522-.54-.708-.116-.557-1.323-.444-1.062.133-1.6.11-1.915-.226-.714-.244-.772-3.2-.882-2.327.1-2.507 1.219-.609.876-.418.6 1.892 1 3.186 2.182 1.387.2 2.281-.714.035 1.19-.923.807-.934-.279-1.967.638-1.161-.012-.6.569 2.066 1.3.337 1.387.168.691.574.348.662-.8.7-1.271 3.528 2.478 5.734 2.2 1.706.685.3.11 1.77 1.956 1.271 2.675 1.422 1.985H308.6l.731 1.19-.076.847-1.255-.349-.882.615-1.178.812-.661 1.764 2.118.081.3-.232 1.3-.987 1.12-.18 1 .731 1.863-.853-.488 1.52 4.1 2.8 2.832.453 2.089-.441.957-.958-.2-.847-1.822-.714-1.648-.58.174-.331 2.484.418 1.5-.209-.406-1.01-.1-.424.865.517.162.07.795-.54-.569-.615-.11-.244.122-.7 6.656 1.956 1.427 1.677 2.072 4.468 1.143 1.132 2.275.5 2.937.093 1.793.511v.749z" class="cls-2" data-name="Path 86248" transform="translate(668.465 210.498)"/>
            <path id="Path_86249" d="M291.057 142.731l.311.034 5.463-.312 2.573 1.536.312-3.077-3.287-.147-2.556-2.051-2.2-1.751-.9.153-1.111-1.043-2.533 1.706-4-.374-1.406-1.627-3.417-1.314-1.144.578-2.2-.578-.958 1.343-1.173 1.638 3.179.516-.47 1.111 2.7.159 3.282 1.235.952-.079 1.3-.1 4.925 2.164z" class="cls-2" data-name="Path 86249" transform="translate(603.773 226.095)"/>
            <path id="Path_86250" d="M299.467 159.1l.765-1.389-.6-1.711-.51-.946-2.2-.261-.64-.89-.283-.38-.352-2.329-1.054-1.173-1.139.187-1.241-.3-.176-1.133.992-1.275.737-1.446-1.615-.89-1.627.725.074-1.57-4.381-3.763h-1.349l-8.217-8.813-1.213-1.468-.912-1.111-2.805-.028-1.887-1.054-1.224-.425-1.031.193v2.04l1.8 2.522 2.737 2.051 2.624 2.93.051.164.209.685 1.133.85 1.746 1.395 1.5 5.106 2.312.924 3.3 7.611.119.26 3.457 3.621.924 2.459 5.559 5.418.515-.578 1.712.952.249-.5 1.672 1.014z" class="cls-2" data-name="Path 86250" transform="translate(578.514 193.42)"/>
            <path id="Path_86251" d="M304.864 133.542l.83-.145a2.4 2.4 0 0 0 .261-.546c0-.11-.714-.725-.714-.725l-1.5-.656-2.1-.255.261-.366v-.662l-.853.395-.418-.8.261-.8v-.545l-.818.081-.621-.592v-.511l-.331-.186-.5.888-.418-.046v-1.224l-.574.522-.888 1.787-.569 1.6-.818 1.091-1.045.4-.017 1.114-.812.621-1.341.313-1.254.487-1.4 1.6-1.462 2.635-1.184 1.259-.052.029-.975.5-2.727.679-1.091.865-.476 1.52.377 1.979.064.366-2.17-.8-.737-.563-.435.528-.621-.174-.725-.876-.609-.284-.778.615-1.157 3.34.221.975.859 1.021.041.928-.429.894.221.725 2.6 2.229.354 1.074v1.631l.017 3.076.511.151.8-.325.157.749 2.646-.656.83-.163v1.422l.215.888 2.014-.534.8-.232.5-1.166 1.079.7.574-.11.429 1.219 1.5-.749 1.306 2v1.219l.157-.07 2.745-1.416 2.31-3.169.714-1.758.1-.261-.168-.081-.563-.244-.035-.412-.018-.453-.017-.279-.017-.3.017-.012 1.863-1.544 1.149-.928.447-.279a2.2 2.2 0 0 0 .261-.853c.018-.128 0-.331 0-.54-.017-.47-.052-1-.052-1l.174-1.718.574-1.317.836-.557-.366-.638-.052-.47.574.754.749.331.749.11.3.046.83-.192.261-.545-.522-.517-.342-.342-2.4-1.341-.435-.592.348-.911.325-.418-.1-.929-1.48-1.358-.766-.406-.2-.186.331-1.01-.615-.511.145-.232 1.074-.174.418-.476.018-.522 1.358-.969 1.5-.162h1.074l-1.776-1.143-.586-.493-.11-.662.354-.25z" class="cls-2" data-name="Path 86251" transform="translate(612.83 189.508)"/>
            <path id="Path_86252" d="M194.279 164.573l-.966-1.088.8-.6-2.02-1h-2.021l-.088.119-.757 1.2-.736.431.4 1.038 1.417-.114 1.392-.125.212.635-1.091.6-.3.685-.017.051.04.006 1.043.68 2.417.607.2.685-.561.454-2.743-1.147-.207.011-2.335.136-1.028 1.088 3.593.566 2.378.38.1.652 1.825.669v-.573l.762-.062.439.93h.626v-.93l.082-.357.731.357h2.443l.572-.431 1.114.431.447-.459 2.054-.312v-.861h-2.054z" class="cls-2" data-name="Path 86252" transform="translate(193.05 357.821)"/>
            <path id="Path_86253" d="M452.019 347.64c-.11-.337-.418-1.712-.493-1.944-.047-.261-1.184-1.265-1.184-1.265l-1.544-.551-2.925-1.213a21.931 21.931 0 0 0-2.577-1.126c-.633-.174-.122-.139-.783-.83-.656-.708-1-1.126-1.253-1.4-.174-.2-.574-.621-.83-.894l-.209-.209-1.178-.279-2.536-1.5-.586.163-1.068.313s-1.474-.122-2.46-.209a16.16 16.16 0 0 0-.894-.058c-.151 0-1.932-.54-2.089-.54s-2.693.215-2.693.215l-4.045 1.027s1.021-1.961.656-2.565a3.349 3.349 0 0 1-.261-1.724l-1.793-1.706s-.337-.116-.778-.3c-.836-.325-2.066-.847-2.008-1.091.047-.377-3.836-.377-3.836-.377s-.865.325-1.526.569a7.633 7.633 0 0 0-.673.29c-.273.174-1.12.917-1.12.917l-1.689.981s-1.143 1.95-1.248 2.182-.395-.476-.395-.476l-1.578-.749-1.892-.354-.453-1.207-1.869-1.108-1.01 1.648-2.536.226.157-1.358 1.468-.163.047-2.211 2.275-1.8 1.561-1.433 1.5-1.387 1.381-1.84-.662-1.538-1.793-.957-.8-1.358s-.157-1.364-.18-1.845c-.035-.464-.2-2.234-.2-2.234l-.615-1.816s-3.627-3.488-3.865-4.178-1.062-.151-1.735-.54a7.037 7.037 0 0 1-1.317-.963l-1.8-.261h-.041s-2.147-.307-2.408-.307c-.279 0-1.666.186-1.666.186l-2.135.447-.116.017-1.956-.464-1.091-1.317-.963-.882s-2.739.58-2.42-.453a4.578 4.578 0 0 0 .168-1.979c0-.8-.592-.592-1.1-1.834-.528-1.236-1.213-.586-1.213-.586s-.975-.812-1.776-1.346-.592-.163-.592-.163-2.141-.052-2.368-.052a14.376 14.376 0 0 1-1.462.215c-.151-.052-.841-.725-.731-1.155s.981.058 1.184-.186c.18-.255.47-.76.47-.76s-.023-.348-.058-.7a12.906 12.906 0 0 1-.052-.7c0-.157-.157-.319-.487-.981s-.47-.441-.47-.441a4.833 4.833 0 0 1-1.433.261c-.2-.1-1.01.11-1.352-.035a.9.9 0 0 1-.1-.029 3.731 3.731 0 0 1-.569-.662s-.6-.969-.487-1.317-.238-.145-.807-.551a2.076 2.076 0 0 0-1.19-.441 7.83 7.83 0 0 1-1.312.215c-.18-.081-1 .8-1 .8l-.5.168-.807.3-2.124.4s-3.122-1.549-3.343-1.613c-.226-.046-2.588.093-2.588.093l-.1.017a12.5 12.5 0 0 1-2.228.186c-.377-.087-.557-.406-.888-.981-.337-.6-.865-1.19-.72-1.874s-.8-.18-1.758-.731c-.975-.522-.789-.1-.789-.1a6.925 6.925 0 0 1-1.8-.116c-.284-.18-2.263 1.631-2.362 1.845s-1.074 1.462-1.074 1.462.215 2.681.3 3.2a3.431 3.431 0 0 1-.325 1.5 4.527 4.527 0 0 1-.743.6 5.664 5.664 0 0 1-1.735-.975 2.023 2.023 0 0 1-.261-.4c-.081-.174-.081-.319-.2-.708a1.437 1.437 0 0 1 .168-1.259c.1-.284.168-.325.957-1.422.755-1.1.43-1.364.377-1.782s-.528-.331-.395-.673c.139-.36-.36-.569-.453-1.433s.72-.029.87-.128 1.561-1.253 1.561-1.253l1.114-.987-.946-.615s-.29-.046-1.375-.238c-1.068-.2-.633.783-.633.783l-1.6 1.248s-.691.72-.992.981a13.893 13.893 0 0 1-1.869 1.021 10.535 10.535 0 0 1-1.869.133c-.946-.035-.348.192-.348.192a3.823 3.823 0 0 1-.7 1.039c-.319.22-.366.807-.487.876s-.812.337-1.126.075c-.331-.273-.1-.325-.1-.325l-.789-1.253a5.958 5.958 0 0 0-.6.435 3.818 3.818 0 0 1-.888.441l-.064 2.652-.25 1.608-.754.957s-.691 1.085-1.265.894c-.551-.192-.958.789-1.178.946s-.3 1.184-.3 1.184l-.238 1.23-.279.691-.435-.319s-.221-.615-.4-.987a2.372 2.372 0 0 1-.371-1.37c.087-.546-1.346-.865-1.346-.865l-1.578-.987-.981-.418-1.48-.36-1.84.186-1.451.644-.7.934-2.141.435h-.54l-1.776-.267s-1.039-.151-1.311-.708c-.226-.412-.952-1.161-1.294-1.677a.738.738 0 0 1-.162-.412c.093-.371-.412-1.19-.412-1.19l-2.019-2.176s-.435-1.172-.458-1.259.029-1.126.1-1.822c.029-.2.047-.377.052-.476.076-.482.174-1.039.261-1.451a9.744 9.744 0 0 0 .4-2.194c.029-.958.691-1.132.789-1.445a5.849 5.849 0 0 1 .836-1.781 3.771 3.771 0 0 0 .963-1.4 16.992 16.992 0 0 0-.226-1.822 19.563 19.563 0 0 0-1.166-2.849 13.705 13.705 0 0 0-1.979-.662c-.482-.151-.882-.261-.882-.261l-1.34-.5-6.157.627-.151-.017-2.327-.261-2.519.157a8.816 8.816 0 0 1-.058-1.776c.116-.383 1.137-1.021 1.137-1.021l1.48-1.549s.447-1.555.662-2.078.511-1.085.83-1.694c.3-.615.847-.981.807-1.642a13.733 13.733 0 0 1-.122-1.66c.052-.366.778-1.137 1.033-1.544a2.576 2.576 0 0 0 .319-1.706c-.1-.725 1.4-.94 1.486-1.718s.691-.778.691-.778.836-1.085.731-1.509-.487-1.19-1.044-.981-1.526.406-1.526.406-3.3.157-3.563-.128-2.165.406-2.78.5c-.6.1-.511.47-.83.522s-1.132 1.132-1.677 1.312c-.528.191.058 1.056-.273 1.712a2.873 2.873 0 0 0-.145 1.619v.853a17.181 17.181 0 0 1-1.787.963c-.157 0-.824.963-.824.963l-.679 1.01.041.47-1.921.145a32.585 32.585 0 0 1-3.447.859 9.175 9.175 0 0 0-1.886.47l-1.294.29-2.095-.168-.017-.818c-.006-.812-2.2-.534-2.461-.847-.267-.331-.546.081-.546.081s-.632-.2-.737-.621 0 0 0-.383a4.892 4.892 0 0 1 .412-1.515c.308-.917-.963-.963-1.114-1.283-.174-.319 0 0-.174-.47a8.956 8.956 0 0 0-.586-1.306c-.325-.662-.215-1.387-.418-1.787s0 0-.656-.418a1.652 1.652 0 0 1-.917-1.515c-.1-.807 0-.487.377-1.387s-.174-1.306-.174-1.567 0-.366-.1-1.666c-.1-1.317.221-1.2.221-1.2l.7-1.8s.226-1.2.313-1.607c.017-.087.081-.279.145-.522.226-.783.621-2.083.621-2.083a7.619 7.619 0 0 1 1.961-2.269c1.387-1.114.615-.685.662-2.286s-.145-1.027.279-2.182c.447-1.155-.424-1.155 1.021-3.894 1.462-2.751 1.811-1.242 1.811-1.242a7.779 7.779 0 0 0 4.364-1.735c2.553-1.816.128-1.637.464-2.17s1.706-.8 3.058-.5c1.329.284 1.567-.7 4.9-1.329 3.337-.609 1.578.8 1.578.8l3.348 1.909a14.2 14.2 0 0 0 2.7-1.457c1.509-1.021.221-.934.331-1.683a2.046 2.046 0 0 1 .133-.511.81.81 0 0 1 .818-.621.645.645 0 0 0 .168-.041c.551-.058 1.515-.447 2-.551a16.775 16.775 0 0 0 1.735-.54l.528-.209s1.787.093 3.447 0a6.381 6.381 0 0 1 2.472.209 9.371 9.371 0 0 0 2.379 1.961 16.832 16.832 0 0 1 1.747.923s.5-.087 1.079-.151a6.863 6.863 0 0 1 1.445-.058c.627.093.441.157 2.3-.522v3.981s0 .279-.012 1.259c-.012.685-.012 1.729-.017 3.261-.012.215-.012.429-.012.685-.012.923 0 1.52.017 1.9.046 1.062.139.5.2.122l.122.058.76 2.617.325.841.65 1.747a3.66 3.66 0 0 0 1.457.331 1.087 1.087 0 0 0 .249-.122 10.239 10.239 0 0 1 .876-.563l.07-.046a1.961 1.961 0 0 0 1.091-1.283c.041-.116.087-.255.145-.4.075-.238.168-.5.308-.836a3.507 3.507 0 0 1 .876-1.37.528.528 0 0 1 .209-.134l-.522-2.339-.3-1.335-.064-.3-.354-2.849s-.11-.853-.238-1.915-.145-1.329-.192-1.921-.064-1.288-.046-2.5a5.431 5.431 0 0 1 .522-2.205c.29-.841.482-.8.894-1.37s.348-.424 1-1.184.952-1.41 1.729-2.286c.772-.894 1.155-.586 1.66-1.973s.429-.87.963-1.3 3.743-1.021 5.194-1.706 1.341-.313 2.548-1.515c1.23-1.2 1.515.1 2.374-.226s.754-1.021 1.149-1.172 1.457-2.176 1.758-2.8a3.038 3.038 0 0 0-.168-2.484c-.4-.644-1.12-1.283-1.12-1.706a4.744 4.744 0 0 1 .389-1.938c.395-1.068.145-1.845.586-2.815.418-.963 1.631-1.573 2.362-2.362.714-.8 3.227-.221 3.227-.221l1.41-.1a6.329 6.329 0 0 0 1.294-1.294 3.222 3.222 0 0 1 .279-.412c.476-.621 1.329-1.526 1.329-1.526l.644-1.666a2.268 2.268 0 0 1 .36-.244 2.913 2.913 0 0 1 .6-.3c.691-.279 1.12-.313 1.619-.482a4.395 4.395 0 0 0 1.787-1.137c.9-.8 1.19-.557 1.4-.563.186-.017.905-.046 1.549-.087l.267-.029a7.585 7.585 0 0 0 .917-.122 12.487 12.487 0 0 0 1.747-1.19s.615.215 1.079.441c.487.215.783-.917.783-.917a14.5 14.5 0 0 0 .342-1.932c-.023-.412.36-.412.464-1.143.11-.714.383-.5.151-1.01l.012-.122c.029-.476 1.642-.975 1.979-1.346a5.759 5.759 0 0 1 1.515-.8l1.619-1.207 1.184-.406.313-.54 1.631-.737 1.422.133 1.695-.656.749-.841 1.834-1.074.754-.221 1.932-.383 1.288.1 3.25-2.089.575.609.708.737.859.8-.859.162-2.008.331-.3.1s-2.617 1.039-3.122 1.288a6.335 6.335 0 0 0-1.172.841c-.447.366-.737.882-1.05.824-.319-.035-.075.905-.116 1.062-.052.139-.163.772-.163.772l.487.551s1.787 0 2.228-.487c.424-.47.7-.174 1.219-1.294.534-1.132 0 0 .487-.383s1.544-1.137 1.544-1.137l1.474.348.992-.3c.621-.174 1.312-.383 1.416-.435.168-.07 1.845-.853 1.845-.853l3.221-1.3-1-.963-2-.1-1.108-.226-1.416-.313-.482-.3a9.083 9.083 0 0 1-2-1.48 4.571 4.571 0 0 1-.377-.807 5.547 5.547 0 0 0-.65-1.294c-.487-.8.1-.8.1-.963s2.478-.7 2.96-1.747c.482-1.027-.18.209-.18.209l-1.9-.139-1.346-.1-1.306-.435-1.724.435 3.18-1.468 1.723.987 2.379-1.329 1.213-1.723-2.037-1.5-1.816.087-4.59.749-3.11 1.9-4.347 2.733-2.379 1.5-2.356 1.23-.551.238a24.557 24.557 0 0 1 2.089-2.542 14.942 14.942 0 0 0 1.671-2.257s2.281-.244 2.385-.279 3.639-2.9 3.639-2.9l3.685-.853s.435.609 1.811-1.317.847-.754 1.486-1.532a1.7 1.7 0 0 1 1.654-.493l6.32.313 5.333.54.064.006 1.991.435 2.548-1.271 3.349-1.927 1.549-.836 2.315-.749s4.747-1.178 5.35-1.457a3.28 3.28 0 0 0 1.457-1.236c.6-.749-.377-1.787-.464-1.735-.064.035-1.149-2.385-1.149-2.385l-1.671-.331-3.447 1.37-3.871-.092.186-.383s.157-.911.685-.888.6-.279.6-.279l4.556-1.039 2.333-2.176-2.577-.429h-1.016c-.992 0-2.861-.07-2.785-.453a2.249 2.249 0 0 0 .052-.644 4.136 4.136 0 0 0-.052-.487c-.122-.627-.36-.279-1.143-1.213s-.371-.221-.795-.714-.041-.766.168-1.079c.191-.3.424-1.329.7-1.317s1.143-.905 1.271-1.282c.139-.354-.592-1.4-.482-1.468s-.5-.389-1.108-1.526c-.615-1.161.116-.923.2-.946a10.1 10.1 0 0 1 .162-2.014 5.6 5.6 0 0 1 .6-.987s.354-1.88.354-2.095a24.858 24.858 0 0 0-4.689 1.509c-.464.29-.685 1.3-.685 1.3a24.028 24.028 0 0 0-2.878 1.718c-1.01.731-.766.789-.551.783l-1.677.261-2.1.331a5.8 5.8 0 0 0-1 .522 18.564 18.564 0 0 1-2.989-.319 2.741 2.741 0 0 1-.3-1.074c0-.5.366-.789.482-1.689a20.9 20.9 0 0 1 .18-2.693c.215-.789.238-.975.528-.94s1.045-1.068 1.045-1.282.435-1.079.72-2.153-1.944-.58-2.141-1.2a7.708 7.708 0 0 0-.656-1.312s-.65-.5-.65-.8-2.577-1.283-2.577-1.283l-2.292 1.317-1.283.331-.36-.1-1.938-.528-1.312-.366-1.741-.017-1.648.772s-.534 1.665-.325 1.828c.226.168-.139.952-.139.952l-1.845 1.265.023 1.967-.958 2.13-1.695.354s-2.118 1.66-2.3 1.782-.064 1.294-.064 1.294l1.114 1.985.319 2.315-1.352 2.559-1.811 2.472-6.383 1.149-3.087.5.134 3.227a8.8 8.8 0 0 1-.348 1.468l-1.068 2.1.029 2.1-1.689 2.379-.569.284-2.17.743-.627.209-.348.911s-2.246-.65-2.333-.633c-.064.035-1.12-1.439-.911-2.17.215-.714-.145-.575-.209-1.079a8.687 8.687 0 0 1 .064-1.857c.064-.366.714-.783.714-.783l1.393-3.8 1.642-2.722-.644-.4-2.722-.383-2.339.023-2.205.093-1.277-1.735s-1.3-.551-1.161-1.283-.151-.783-.215-1.01c-.076-.209-1.7-.662-1.967-.853a4.276 4.276 0 0 0-.551-.308c-.3-.162-.592-.3-.592-.3l-1.979-.522-1.445.337-1.358.29-2.867-.487-.168-.029a5.083 5.083 0 0 0 .934-.836c.279-.348.041-.911-.075-1.532a2.784 2.784 0 0 1-.052-.487c0-.789-.94-.859-.94-.859l-.928-.58a10.978 10.978 0 0 1 .493-2.211c.145-.25.313-.482.482-.725.122-.174.232-.348.36-.5.279-.4.818-1.932 1.167-2.443a2.508 2.508 0 0 1 1.045-.58 6.88 6.88 0 0 0 1.84-.992 11.023 11.023 0 0 1 1.874-1.271l2.368-1.358 2.437-1.671.859-1.306 1.5-.238 4-.633s1.091-1.074 1.091-1.282-1.137-.429-1.137-.429-2-.267-2.327-.348l-.058-.006a12.842 12.842 0 0 1-2.136-1.224c-.157-.221.058-1.01.273-1.439s2.06 1.312 2.06 1.312l.569.186c.917.3 2.652.807 2.971.592.424-.3 2.82-.023 2.82-.023s1.143-.453 2-.743a7.2 7.2 0 0 1 .749-.238 4.118 4.118 0 0 0 2.983-1.8c.807-1.422-.081-.865-.081-.865l-3.505-1.619.017-.551.482-.87 3.534.133 2.5 1.486.934.261 4.434-1.277.534-1.526 4.532-.691.54-1.149.847-.383.987 1.137 5.792-1.137a8.554 8.554 0 0 0 .337-1.706c0-.575 1.149-1.509 1.509-1.509a1.065 1.065 0 0 1 .644.29s1.671-2.809 1.573-3.29a.966.966 0 0 0-.487-.673l-4.6-.482a12.822 12.822 0 0 0-.87 1.143 8.4 8.4 0 0 1-1.747 1.091l-2.362.7-2.809 2.675a24.288 24.288 0 0 1-3.343 1.341c-.737.122-.772-.279-.772-.65a5.766 5.766 0 0 1 .842-1.857c.36-.575 1.311-.836 1.375-.917a10.8 10.8 0 0 1 .633-1.016c.5-.766-.557-1-.557-1l-1.457.429-3.076 1.863a9.282 9.282 0 0 1-1.468-.238c-.139-.081.192-.6.447-.934s1.021-1.549 1.021-1.549-1.277-.128-2.188-.215c-.447-.041-.813-.075-.911-.075-.284 0 .081-1.329.081-1.329l1.224-.261s2.147-1.329 2.025-1.584a12.826 12.826 0 0 1 .371-2.681l-3.261-.244-4.1.29-1.2 2.513-.592 1.648 1.079 1.944-.168 1.242-.128.9-1.927.65-.7.232-1.3.418-2.153.894-2.443 2.762-1.224.435.412-2.112a13.2 13.2 0 0 0 .894-2.849c.023-.772-2.333-.012-2.333-.012l-.041 1.967-1.021.424-2.077-.435-3.65-.18-3.174.058-2.513-.743-2.852-.428-2.315-.145-6.54 2.466-.7 1.956-.006.035-1.834-.273.342-2.06v-.012l-.023-.006-2.437-.958-2.728.725-2.437.209-3.737-.36-2-.83.273-.772 2.675-.267 1.254-.255-.685-1.607-3.169-.046-3.552-.7-3.7-1.265-2.223-.917-3.325 1.1-1.625.418-1.671-.865-2.629-.012.07-.795-1.886-.563-3.087.714-3.563 1.074-2.345.25-1.387.046-2.484.5-3.627 1.1H269l-1.8-.215-.679-.279-2.664-1.126-.975-.342-2.739-.952-3.575-.743-.157-.035-5.908-.812-4.393-.4-6-.2-2.629-.162-.481-1.233h-1.868l-3.871-.714-6.418 1.706-2.362.238-1.393.122-3.882.963-4.341.772-5.455 2.344-7.074.737-1.207.424-2.06.737 1.1 1.712.07 2.461 2.785.11.192 1.317-1.364 1.01-4.48.673-1.433-.052-.192-1.567-4.172.714-1.2.3-2.461.609-.07.023-3.2.818-.592 1.753-1.6 1.816 1.9-.238 2.188-.261 1.039.023 1.474.046 1.619.842 3.076-.929 2.548-.325.22.842-1.816.145-1.5 1.48-.122.081-.737.557-1.346 1.468-3.842.157-.957.035s-.1.012-.435.029a76.7 76.7 0 0 1-2.96.041l-.342-.679-.006-.017-.075.041-1.37.708-.232.122-.859.522-1.7 1.05-.824.789-2.693 1.359-2.884.47a15 15 0 0 0-1.352 1.37 6.823 6.823 0 0 0-.522 1.712 4.027 4.027 0 0 1-.975 1.184l.134 1.364s.592-.035 1.05-.075a3.132 3.132 0 0 0 .522-.064c.226-.075 1.445-.8 1.445-.8l2.832-.662 1.973-.557s-2.437 1.584-2.78 1.944a15.357 15.357 0 0 1-2.461 1.288s-2.078 1.787-2.223 2.019c-.145.2 1.1.917 1.1.917s2.571-1.282 2.907-.934a18.16 18.16 0 0 0 2.083 1.352s3.244-1.915 3.813-2.06 1.9 1.149 1.9 1.149l.783-.1 1.99-.255-1.886 1.689-2.345 2.112-5.171 2.008-3.389 1.648-4 .87a41.384 41.384 0 0 1-6.209 1.323c-2.014.116-.546 0-1.167.035a2.889 2.889 0 0 1-1.381-.429l-1.944.714s-.191.058-.493.145c-1 .319-3.1.934-3.366.934-.366 0-2.461.215-2.461.215l-1.074 1.445 2.507.07 2.112-.818.656-.3c.882-.406 2.414-1.114 2.774-1.259a44.274 44.274 0 0 1 5.6.232l3.673-.72 4-1.816 7.109-2.223 4.741-1.921 3.018-1.219.429-.192 3.737-1.665.3-1.056.47-.807 1.549-.859 2.078-.139.691-.575 1.834-1.439.493-.383 2.873-.836 2.112-.331 2.118-1.027s1.474-.65 1.584-.691 1.329-.418 1.573-.534c.261-.1 2.159-.284 2.339-.389s.563.331.563.331a12.836 12.836 0 0 1-1.283 1.161 5.157 5.157 0 0 0-.9.87c-.458.5-.894.07-1.01.07a4.12 4.12 0 0 0-.714.4s-1.387.244-1.723.244-2.008.447-2.3.447a6.3 6.3 0 0 0-1.248.441s-.9 1.021-1.01 1.132a3.337 3.337 0 0 1-.946.395c-.168.035-.3.615-.447.783v.012a6.019 6.019 0 0 0-.493.824l1.068-.255v-.006l1.59-.4s2-.575 2.635-.749c.633-.191 1.375-.418 2.1-.644l1.729-.528 1.387-.424s.134-.58.174-.7a9.966 9.966 0 0 1 .911-.8 4.52 4.52 0 0 1 1.079-.644 3.622 3.622 0 0 1 1.317-.122l1.782-.157h1.433s2.153 1.079 2.362 1.288c.192.209.917 1.259.917 1.259l2.037.319h1.712s3.54.888 3.644.87c.116 0 .563.395.563.395l.656.76 1.341 1.154s.325 1.178.371 1.352a1.453 1.453 0 0 0 .458.754 1.594 1.594 0 0 0 .6.157s.824-.041.865-.3a3.586 3.586 0 0 0 .052-.679 3.037 3.037 0 0 1 .522-1.079c.168-.081.3.47.3.47l1.219.958-.116.435.888.337a10.441 10.441 0 0 0 .76-.929c.191-.284 0-.94.07-1.37a1.785 1.785 0 0 1 .255-.621 4.132 4.132 0 0 1 1.126-.6 3.163 3.163 0 0 1 .551-.017 6.091 6.091 0 0 0 .551.331c.209.116.145 1.8.145 1.909a7.109 7.109 0 0 1-.012 1.062 8.6 8.6 0 0 0-.569 1.033l-.859 1.48-.476.737.116 2.182.209 1.039 1.085 1.079-.487 1.532-.447.981-.244 1.01.244 1.4.615.72.389.749-.145.929.012 1.277.5 1.166-.244 1.114-.046.534a8.094 8.094 0 0 1-.221.865 1.929 1.929 0 0 1-.278.511l.064 1.462.546 1.457.72.766a4.079 4.079 0 0 1-.035.981c-.058.075.754.6.754.6l.551.87-.017 1.027.7 1.149-.07.905-.615 1.718-.667.8-.842 2.275-.389.453-1.41 1.6-1.509.226 1.573-.766.128-.952.163-.435.348-.395.313-.36-1.439-.76-.749-.389-1.816-.447-.917.836-.319 1.8-.128 2.6-.836 1.155-.458.911h1.213l.25.7-2.095.348-1.172 1.062-1.782 2.832-2.31 3.128-.847.853-.894.923-1.868 1.927-1.056 3.424-.87 2.275-.911 1.41-.8.54-.633.522-.058 1.021.5 1.132-.081.812-.017.261-.557 1.816-.052 1.143-.087 1.248.482 1.393.337.191.673-1.584.83.4-.412.5-.209 1.5-.07.487-.128.673-.238 1.2-1.01 1.1v1.416l1.091 2.42.348 1.95-.743 1.178.075-.012.754-.139.934.11.824.1.975 1.068.395.418.969-.122.418.853.545.192.888 1 .586 1.938-.023 2.727.151 2.936.545 2.107.209 1.718.429 1.619 1.19 1.491 1.1 1.341.308 1.515-.429 1.12-.7.656-1.068.116-1.108.087 1.091 2.031 3.023 1.155.383 1.01.6.824.064.087.888.261.447.8-.046 1.288-.778 1.561.189 1.348.818 1.23 3.244 2.368.708 1.648.2 1.132 1.422-1.561-.406-1.433-1.671-1.114-1.312-7.579-.72-.754-.812-3.279s-.708-.789-.754-.894-.023-1.979-.023-1.979l-1.7-2.246-.656-2.484-.371-2.286.093-2.571.574-2.606 1.422.969 1.573.273.4.4 1.358.662-.122.812-.279 3.076 1.323 4.973 1.1 2.217 1.358.25v.737l.2 1.555 1.114.435.424 1.114h.714l.493.992-.975 1.677.83 1.538 2.437 1.3v1.66l1.253 1.5 2.629 3.668.354 1.149 1.219 4.016-.511 2.275.215.87.151.563-.319.046-.917.157.348 1.782.162.859 2.234 1.909 2.246 2.507 2 .673 2.577.731 1.625 2.014 3.43 2.159 2.994 1.457 3.006 1.445 3.023 1.184 3.11-.679 1.584-1.079 1.811-.337 2.194.894 2.53 2.867 2.269 3.186 3.163 1.532 2.234.447 3.389 1.346 1.027.389h1.526l1.869-.418.5.627-.139 1.236 2.931 4.37 1.248 1.845-.186 2.53.377.557.528.778.766.07v-1.4l1.666 1.578 1.178.685.981.737.058.174.638 2.095.975-.134.644 1.352 1.12-.174 2.942.859 1.445 1.12 1.294 2 1.573-.749.824-.615-1.48-1.915.354-.714 1.561-.517.929-.958 1.1-.731 2.762 1.329 1.439 1.282-.824.76 1.695 6.07-.3 2.8.279 3.273.157 1.758-1.665 4.857-1.927.4-1.48 3.836-3.383 1.387-.528 1.631-.662 1.985s-1.294 2.281-1.59 2.315.191 4.6.191 4.6l1.242.969 1.584-1.4-.07 2.658-2.188 2.733-1.132 1.666.18 3.465.209 2.4 2.9 3.255 2.913 3.285 6.041 12.39 2.484 3.174 1.88 2.791v2.64l2.6 3.633 4.967 2.995.911.563 7.559 5.012 1.7 1.712 1.143 1.137 1.863 4.956.168.424.337 6.726.2 4.027.023 4.817.72 2.141.157 2.548-.012.174-.853 10.782L351.8 429l-.685 1.625.5 2.043 1.335 3.029.638 4.695-.4 6.117-.429 6.441-1.039 1.648 2.356 5.043.679 2.5v4.358l3.586 2.664 1.381-.453.424-.151-.18 2.025.812 1.312-.191 2.728.255.685.574 1.677 2.02 1.671-.574 1.712.453 1.358-.128.737-.325 1.95.029 2.194.8 2.582 1.491.8.76 1.613v2.565l.842 2.165 1.573 2.17.07.1.47.783.464 1.584.795.5v1.056l.708.673.783.76.429 1.039 1.567 1.027.25 1.312.662.157.679.679h.012l.836.006.267.458 4.033 1.23h.824L380 507.314v-.8l1.857-.6.818-.575v-.969l.174.058.215.081s1.538.621 1.509.342c-.023-.261 0 0-.1-.157a10.6 10.6 0 0 1-.754-.946c-.244-.4-.4-.232-.482-.232a1.94 1.94 0 0 1-.517-.168.52.52 0 0 1-.192-.128c-.1-.174-.035-.522-.157-.975-.139-.458 0 0-.209-.29-.215-.313-.261-.249-.383-.47a14.544 14.544 0 0 1-.609-1.323l-.006-.035c-.058-.2.29-.725.348-.952a3.53 3.53 0 0 0 .017-.354.638.638 0 0 1 .145-.377l.017-.006c.2-.267.006-.458.093-.592a2.014 2.014 0 0 0 .209-.557c-.017-.035.435-.162.569-.273s.261-.029.371-.11.081-.2.081-.348v-.551c0-.389-.081-.354-.162-.621s-.168-.174-.191-.493.087-.371.1-.609.325-.342.43-.441a4.048 4.048 0 0 0 .76-.569 2.9 2.9 0 0 0 .563-.766c.145-.331.627-.412.946-.673s-.1-.36-.157-.766a1.035 1.035 0 0 0-.279-.644c-.1-.122-.174-.087-.1-.186.075-.081.337-.517.337-.517l.064-.772-.749-.818-.458-.238-1.242-.5s-.551-.209-.865-.3c-.313-.122-.975-.412-1.108-.47s-.551-.058-.482-.255-.981-.342-1.068-.487-.023-.133-.081-.487c-.047-.377-.3-.946-.3-1.306 0-.383-.174-.65-.128-.847a4.453 4.453 0 0 1 .29-.749 4.381 4.381 0 0 1 .586-.812c.354-.412 1.161-.592 1.416-.754a5.545 5.545 0 0 1 1.52-.046l-.232-.952.807-.633.081-1.236-.853-1.236s-.093-.894-.075-1.155.052-.267.209-.644a4.636 4.636 0 0 1 .789-1.219c.29-.325-.081-.041-.081-.041a1.83 1.83 0 0 1-.673-.134c-.157-.1-.424-.232-.493-.267-.093-.012-.191-.47-.191-.47l1.016-.139s1.039-.076 1.126-.052a4.2 4.2 0 0 1 .487.424s.888.406 1.039.319a2.555 2.555 0 0 1 .284-.731c.139-.163-.29-.65-.36-.812a1.24 1.24 0 0 1-.18-.557.23.23 0 0 1 .023-.128c.133-.2-.267-.476-.267-.476l-.708-.308s-.534.029-.615.029-.383.279-.383.279l.186.54.3.041.07.244.128.429-.342.25-.876-.035-.928-.162-.406-.093-.331-.07a.845.845 0 0 1-.772-.18c-.383-.325-.221-.963-.221-1.729a17.5 17.5 0 0 0 .221-2c-.041-1.184.743-.366.743-.366a7.439 7.439 0 0 0 1.782.366c.424-.046 1.445-.046 1.445-.046a3.424 3.424 0 0 0 2.269-1.567c.911-1.387.047-1.079.1-1.549s-.882-1.108-.743-1.48-.278-.946-.487-1.642 0-.783 0-.783.209-.888.424-.946c.163-.035.528-.087.72-.116l.133-.006a10.049 10.049 0 0 0 1.625.667 9.007 9.007 0 0 0 2.362-.064 12.335 12.335 0 0 1 2.2-.273l1.549-.627 1-.424s1.108-.615 1.283-.731a6.857 6.857 0 0 0 .737-.778c.145-.2 1.224-2.5 1.224-2.5l.342-3.354-1.6-.633s-.371-1.718-.1-2.037-1.143-1.178-1.19-1.666-.8-.917-.8-.917l-1.845-.662-.812-.377-.905-1.288.209-.453 2.965.847 3 1.462 2.548.47 1.932.592s1.991-1.323 1.95-1.729c-.064-.389 2.246-2.211 2.031-2.553-.2-.366.888-2.269.888-2.269l1.155-3.163a8.41 8.41 0 0 1 .574-.859 8.918 8.918 0 0 1 1.683-1.4 3.476 3.476 0 0 0 .754-.685 13.321 13.321 0 0 0 1.358-2.687 12.072 12.072 0 0 0 .47-1.84c.186-.807.395-1.636.632-2.379a5.776 5.776 0 0 1 .958-1.8c.609-.963.952-1.021.952-1.021a20.779 20.779 0 0 0 .957-3.737 4.409 4.409 0 0 0-.046-.7c-.041-.29-.122-.476-.255-1.114-.209-1.016-.917-1.561-.743-1.95.191-.371-.412-.957-.412-.957s-.087-2.234-.128-2.281a16.951 16.951 0 0 0 1.712-1.277c.3-.4.36-.29.853-.859.47-.575 1.834-.975 2.582-1.741.766-.737 2.153-1.648 2.524-2.037s.783-.006 1.468-1.132 1.95-1.045 2.257-1.288 2.472.267 3.012.052a7.012 7.012 0 0 1 1.723-.261s1.886-.191 2.269-.6a1.856 1.856 0 0 0 .313-.7c.075-.261.134-.482.348-.54a18.486 18.486 0 0 0 1.875-1.091s.36-1.329.36-1.532c0-.221.255-2.217.644-2.49.412-.267.168-.7.331-.853.168-.174 1.5-1.137 1.5-1.137l1.509-1.985.168-1.787-.876-2.008.035-.963.029-.911s.278-.441.551-.888c.215-.354.418-.725.476-.824a32.524 32.524 0 0 0 .894-3.981 22.342 22.342 0 0 0 .017-2.588 17.552 17.552 0 0 0-.487-2.7c-.11-.482-.424-1.811-.424-1.811l-.11-2.432.638-2 1.544-1.05 1.259-1.48 1.271-3.145c.041-.145.894-1.642.992-1.857s.58-.157.58-.157 1.34-1.532 1.457-1.631c.058-.064.83-1.2 1.428-2.095.383-.575.691-1.039.72-1.1.07-.133 1.782-4.23 1.782-4.23l.435-2.907-.139-1.666s-.731-2.296-.824-2.65z" class="cls-2" data-name="Path 86253" transform="translate(0 13.891)"/>
            <path id="Path_86254" d="M181.422 125.631l1.59-.348 2.716-.087.551-.017 1.132.1.482 2.182 1.335-1.114.406-1.137.244-.766h1.137l.337.412.458.395.975-.807h3.255l.574.923 1-.482s.3-1.143.354-1.509-.888-.574-.888-.574l-1.869-.644-1.114-.487.633-.6a4.909 4.909 0 0 0-1.265-.754c-.383-.046-.836-.174-.946-.575-.1-.383-1.248 0-1.248 0l-2.524-.2-.638.464-1.445-.122-1.306-.139-.65-.458h-.963l-.331.9 1.021.5.215.191.6.528-.07 1.573.5.94-.267.064-.6.151-1.4-.232h-1.578l-1.37.017-.772.749.58.389z" class="cls-2" data-name="Path 86254" transform="translate(156.362 153.182)"/>
            <path id="Path_86255" d="M194.571 127.713s-.5.662-.592.766-.482.064-.482.064l2.1.458 2.356-.348 1.056-.087.238-.023h2.629l1.631-.151.83-.215.406-.551-.87-.766-1.584-.429-1.2-.244-.139-.035-.476-.836.116-.458-1.451.145a12.373 12.373 0 0 1-1.3-.052 2.692 2.692 0 0 0-.574-.052h-.128a7.7 7.7 0 0 1-1.068-1.19c-.116-.267-1.5-1.079-1.724-1.346a1.388 1.388 0 0 0-.76-.325l-1.5-1.259-1.671.035-1.6-1.6-.743-.644-2.182-.905-1.01-.192-.592-.122-1.874.308-.023.006-1.033.1-1.706-.1h-1.288l-.888 1.155-.876.545-1.045 1.1-.731.934v.6l.633.633.743-.859 1.486-.888 1.857-1.857h3.29l.928.7-.012.023-1.5.342.36.279h.871l2.582.279h1v1.137l1.271.662 2.681.174 1.567.279v1.137l.145 1.294.511.557 1.108.11h1.561l.482.772-.708.818z" class="cls-2" data-name="Path 86255" transform="translate(132.999 143.922)"/>
            <path id="Path_86256" d="M297.075 155.909l-1.787.65c-.331.128-1.457.36-1.457.36s-.11-.006-.278-.023a4.565 4.565 0 0 1-1.079-.238 5.6 5.6 0 0 1-1.039-.992L290.7 155h-.389a4.185 4.185 0 0 0-.725.11c-.453.1-.5.354-.5.354a11.877 11.877 0 0 0-.313 1.7c0 .458.058 1.045.058 1.045v1.66l-.783 1.282a8.747 8.747 0 0 0-.615.76c-.046.11-.151 1.312-.151 1.312l.377.72 1.219.615h1.439l.714-1.166.748.209 1.236.267 1.271-.609.708-1.532.279-.725.923-1.132.992.238v-.58l.708-1.317 1.306-2.049-1.114-.487z" class="cls-2" data-name="Path 86256" transform="translate(673.114 324.732)"/>
            <path id="Path_86257" d="M325.75 157.624l-.209-.911.905-1.19.5-.615h-1.41s-1.387 1.045-1.509 1.219c-.1.163-.836 1.578-.836 1.578l-.192.168-1.248 1.027s-1.689.83-1.828.929-1.95 1.77-1.95 1.77l-1.109 1.52s-3.772 1.01-4.016 1.091a25.266 25.266 0 0 0-2.646 1.549 13.533 13.533 0 0 1-3.18.754 13.156 13.156 0 0 0-2.182 1.439s-1.358 1.044-1.5 1.178a17.469 17.469 0 0 1-2.089.487 15.084 15.084 0 0 0-1.509.981 7.763 7.763 0 0 0-.7.847l-1.375 1.172a14.868 14.868 0 0 1-1.387.911l-.366.847 1.665.128.627-.145 1.114.911.139.163.551.656 2.646-.232 2.849-2.083 2.345-.8s1.2-.905 1.515-1.155c.139-.116.308-.279.487-.43a3.124 3.124 0 0 0 .325-.319 14.7 14.7 0 0 0 1.758-2.037 3.734 3.734 0 0 1 .783-1.016l2.049-1.4 2.246-.522 1.457.522.766-.47.209-1.155.244-.47.7-.511 1.666-.8 1.944-1.01 1.637-1.056 1.149-.992s.5-.592.627-.754c.052-.076.151-.273.261-.487.151-.261.3-.534.3-.534v-1.457l-1.079.429z" class="cls-2" data-name="Path 86257" transform="translate(714.657 324.299)"/>
            <path id="Path_86258" d="M320.556 161.008l-1.062.157-1.532.783-1.5.737-.569-.017-1.166-.5-.238-.1a5.982 5.982 0 0 1-.522-1.149 4.781 4.781 0 0 1 .279-1.219 7.851 7.851 0 0 1 .6-1.12 4.581 4.581 0 0 0 .192-.836l-.8.754-.975 1.074-.7.232-.522-.244a12.936 12.936 0 0 1 .087-2.072c.1-.279.348-.749.574-1.236.244-.47.586-1.207.656-1.358.035-.139.261-.847.3-1.01.017-.174-.018-.882-.018-.882l-.656-.534-.389-.36-.534-.557h-.923l-.487 1.23.4 1.23-.5 2.281.174 1.48s.157 1.851-.1 2.078c-.3.2-.145 1.683-.145 1.683l-.917 1.474s-1.41 1.5-1.637 1.729a6.6 6.6 0 0 1-1.509.6c-.157.052-.958.969-1.254 1.079s-.644-.11-1.062.1c-.435.215 0 0-.087.4a1.522 1.522 0 0 0 .3.94l1.021.859.615.958s-.818 1-.975 1.1a6 6 0 0 0-.679 1.062s-1.132.743-1.265.841l-.662.487-.5.5v.789l.83.3.876.006 1.764-.737 1.671-1.219.87-.83s1.793-1.927 1.95-2.107c.151-.157.708-.737.882-.928.191-.191.609-1.016.94-1.346.226-.244.54-.186.784-.209a.437.437 0 0 0 .186-.058c.244-.162.894-.516.894-.516s1.073-.406 1.2-.72 1.445 0 1.445 0l.134-.418.7-.772s.557-.377.679-.458l1.671-.894.627-.412.969-1.085z" class="cls-2" data-name="Path 86258" transform="translate(743.197 308.194)"/>
        </g>
        <g id="Ellipse_2632" class="cls-3" data-name="Ellipse 2632" transform="translate(981 1818)">
            <circle cx="3" cy="3" r="3" class="cls-10"/>
            <circle cx="3" cy="3" r="10.5" class="cls-11"/>
        </g>
        <g id="Ellipse_2640" class="cls-4" data-name="Ellipse 2640" transform="translate(1011 1752)">
            <circle cx="5.5" cy="5.5" r="5.5" class="cls-10"/>
            <circle cx="5.5" cy="5.5" r="10.5" class="cls-11"/>
        </g>
        <g id="Ellipse_2641" class="cls-4" data-name="Ellipse 2641" transform="translate(1085 1714)">
            <circle cx="5.5" cy="5.5" r="5.5" class="cls-10"/>
            <circle cx="5.5" cy="5.5" r="10.5" class="cls-11"/>
        </g>
        <g id="Ellipse_2666" class="cls-4" data-name="Ellipse 2666" transform="translate(1031 1711)">
            <circle cx="3" cy="3" r="3" class="cls-10"/>
            <circle cx="3" cy="3" r="8" class="cls-11"/>
        </g>
        <g id="Ellipse_2642" class="cls-4" data-name="Ellipse 2642" transform="translate(1213 1773)">
            <circle cx="5.5" cy="5.5" r="5.5" class="cls-10"/>
            <circle cx="5.5" cy="5.5" r="10.5" class="cls-11"/>
        </g>
        <g id="Ellipse_2633" class="cls-4" data-name="Ellipse 2633" transform="translate(966 1742)">
            <circle cx="3" cy="3" r="3" class="cls-10"/>
            <circle cx="3" cy="3" r="8" class="cls-11"/>
        </g>
        <g id="Ellipse_2665" class="cls-4" data-name="Ellipse 2665" transform="translate(951 1742)">
            <circle cx="3" cy="3" r="3" class="cls-10"/>
            <circle cx="3" cy="3" r="8" class="cls-11"/>
        </g>
        <g id="Ellipse_2664" class="cls-4" data-name="Ellipse 2664" transform="translate(954 1730)">
            <circle cx="3" cy="3" r="3" class="cls-10"/>
            <circle cx="3" cy="3" r="8" class="cls-11"/>
        </g>
        <g id="Ellipse_2663" class="cls-4" data-name="Ellipse 2663" transform="translate(966 1757)">
            <circle cx="3" cy="3" r="3" class="cls-10"/>
            <circle cx="3" cy="3" r="8" class="cls-11"/>
        </g>
        <g id="Ellipse_2635" class="cls-3" data-name="Ellipse 2635" transform="translate(917 1742)">
            <circle cx="3" cy="3" r="3" class="cls-10"/>
            <circle cx="3" cy="3" r="10.5" class="cls-11"/>
        </g>
        <g id="Ellipse_2643" class="cls-5" data-name="Ellipse 2643" transform="translate(608 1700)">
            <circle cx="5" cy="5" r="5" class="cls-10"/>
            <circle cx="5" cy="5" r="9.5" class="cls-11"/>
        </g>
        <g id="Ellipse_2644" class="cls-6" data-name="Ellipse 2644" transform="translate(702 1679)">
            <circle cx="5" cy="5" r="5" class="cls-10"/>
            <circle cx="5" cy="5" r="7.5" class="cls-11"/>
        </g>
        <g id="Ellipse_2645" class="cls-6" data-name="Ellipse 2645" transform="translate(603 1816)">
            <circle cx="2.5" cy="2.5" r="2.5" class="cls-10"/>
            <circle cx="2.5" cy="2.5" r="5" class="cls-11"/>
        </g>
        <g id="Ellipse_2646" class="cls-7" data-name="Ellipse 2646" transform="translate(618 1836)">
            <circle cx="2" cy="2" r="2" class="cls-10"/>
            <circle cx="2" cy="2" r="4" class="cls-11"/>
        </g>
        <g id="Ellipse_2647" class="cls-7" data-name="Ellipse 2647" transform="translate(691 1884)">
            <circle cx="2" cy="2" r="2" class="cls-10"/>
            <circle cx="2" cy="2" r="4" class="cls-11"/>
        </g>
        <g id="Ellipse_2648" class="cls-7" data-name="Ellipse 2648" transform="translate(728 1872)">
            <circle cx="2" cy="2" r="2" class="cls-10"/>
            <circle cx="2" cy="2" r="4" class="cls-11"/>
        </g>
        <g id="Ellipse_2649" class="cls-4" data-name="Ellipse 2649" transform="translate(760 1918)">
            <circle cx="2" cy="2" r="2" class="cls-10"/>
            <circle cx="2" cy="2" r="7" class="cls-11"/>
        </g>
        <g id="Ellipse_2651" class="cls-7" data-name="Ellipse 2651" transform="translate(721 2002)">
            <circle cx="2" cy="2" r="2" class="cls-10"/>
            <circle cx="2" cy="2" r="4" class="cls-11"/>
        </g>
        <g id="Ellipse_2652" class="cls-7" data-name="Ellipse 2652" transform="translate(741 2021)">
            <circle cx="2" cy="2" r="2" class="cls-10"/>
            <circle cx="2" cy="2" r="4" class="cls-11"/>
        </g>
        <g id="Ellipse_2650" class="cls-7" data-name="Ellipse 2650" transform="translate(679 1914)">
            <circle cx="2" cy="2" r="2" class="cls-10"/>
            <circle cx="2" cy="2" r="4" class="cls-11"/>
        </g>
        <g id="Ellipse_2637" class="cls-4" data-name="Ellipse 2637" transform="translate(1155 1831)">
            <circle cx="3" cy="3" r="3" class="cls-10"/>
            <circle cx="3" cy="3" r="8" class="cls-11"/>
        </g>
        <g id="Ellipse_2638" class="cls-3" data-name="Ellipse 2638" transform="translate(1224 1861)">
            <circle cx="6" cy="6" r="6" class="cls-10"/>
            <circle cx="6" cy="6" r="13.5" class="cls-11"/>
        </g>
        <g id="Ellipse_2668" class="cls-3" data-name="Ellipse 2668" transform="translate(1299 1979)">
            <circle cx="6" cy="6" r="6" class="cls-10"/>
            <circle cx="6" cy="6" r="13.5" class="cls-11"/>
        </g>
        <g id="Ellipse_2636" class="cls-8" data-name="Ellipse 2636" transform="translate(917 1856)">
            <circle cx="3" cy="3" r="3" class="cls-10"/>
            <circle cx="3" cy="3" r="6.5" class="cls-11"/>
        </g>
        <g id="Ellipse_2669" class="cls-8" data-name="Ellipse 2669" transform="translate(1334 1912)">
            <circle cx="3" cy="3" r="3" class="cls-10"/>
            <circle cx="3" cy="3" r="6.5" class="cls-11"/>
        </g>
        <g id="Ellipse_2670" class="cls-8" data-name="Ellipse 2670" transform="translate(1254 1892)">
            <circle cx="3" cy="3" r="3" class="cls-10"/>
            <circle cx="3" cy="3" r="6.5" class="cls-11"/>
        </g>
        <g id="Ellipse_2671" class="cls-8" data-name="Ellipse 2671" transform="translate(1270 1770)">
            <circle cx="3" cy="3" r="3" class="cls-10"/>
            <circle cx="3" cy="3" r="6.5" class="cls-11"/>
        </g>
        <g id="Ellipse_2672" class="cls-8" data-name="Ellipse 2672" transform="translate(1161 1736)">
            <circle cx="3" cy="3" r="3" class="cls-10"/>
            <circle cx="3" cy="3" r="6.5" class="cls-11"/>
        </g>
        <g id="Ellipse_2673" class="cls-8" data-name="Ellipse 2673" transform="translate(1122 1784)">
            <circle cx="3" cy="3" r="3" class="cls-10"/>
            <circle cx="3" cy="3" r="6.5" class="cls-11"/>
        </g>
        <g id="Ellipse_2674" class="cls-8" data-name="Ellipse 2674" transform="translate(1132 1799)">
            <circle cx="3" cy="3" r="3" class="cls-10"/>
            <circle cx="3" cy="3" r="6.5" class="cls-11"/>
        </g>
        <g id="Ellipse_2675" class="cls-8" data-name="Ellipse 2675" transform="translate(1191 1818)">
            <circle cx="3" cy="3" r="3" class="cls-10"/>
            <circle cx="3" cy="3" r="6.5" class="cls-11"/>
        </g>
        <g id="Ellipse_2676" class="cls-8" data-name="Ellipse 2676" transform="translate(1173 1808)">
            <circle cx="3" cy="3" r="3" class="cls-10"/>
            <circle cx="3" cy="3" r="6.5" class="cls-11"/>
        </g>
        <g id="Ellipse_2677" class="cls-8" data-name="Ellipse 2677" transform="translate(1219 1808)">
            <circle cx="3" cy="3" r="3" class="cls-10"/>
            <circle cx="3" cy="3" r="6.5" class="cls-11"/>
        </g>
        <g id="Ellipse_2654" class="cls-8" data-name="Ellipse 2654" transform="translate(951 1892)">
            <circle cx="3" cy="3" r="3" class="cls-10"/>
            <circle cx="3" cy="3" r="6.5" class="cls-11"/>
        </g>
        <g id="Ellipse_2657" class="cls-8" data-name="Ellipse 2657" transform="translate(981 2001)">
            <circle cx="3" cy="3" r="3" class="cls-10"/>
            <circle cx="3" cy="3" r="6.5" class="cls-11"/>
        </g>
        <g id="Ellipse_2658" class="cls-8" data-name="Ellipse 2658" transform="translate(1005 1976)">
            <circle cx="3" cy="3" r="3" class="cls-10"/>
            <circle cx="3" cy="3" r="6.5" class="cls-11"/>
        </g>
        <g id="Ellipse_2659" class="cls-8" data-name="Ellipse 2659" transform="translate(957 1958)">
            <circle cx="3" cy="3" r="3" class="cls-10"/>
            <circle cx="3" cy="3" r="6.5" class="cls-11"/>
        </g>
        <g id="Ellipse_2655" class="cls-8" data-name="Ellipse 2655" transform="translate(1037 1892)">
            <circle cx="3" cy="3" r="3" class="cls-10"/>
            <circle cx="3" cy="3" r="6.5" class="cls-11"/>
        </g>
        <g id="Ellipse_2660" class="cls-8" data-name="Ellipse 2660" transform="translate(1037 1805)">
            <circle cx="3" cy="3" r="3" class="cls-10"/>
            <circle cx="3" cy="3" r="6.5" class="cls-11"/>
        </g>
        <g id="Ellipse_2661" class="cls-8" data-name="Ellipse 2661" transform="translate(1052 1805)">
            <circle cx="3" cy="3" r="3" class="cls-10"/>
            <circle cx="3" cy="3" r="6.5" class="cls-11"/>
        </g>
        <g id="Ellipse_2662" class="cls-8" data-name="Ellipse 2662" transform="translate(1052 1818)">
            <circle cx="3" cy="3" r="3" class="cls-10"/>
            <circle cx="3" cy="3" r="6.5" class="cls-11"/>
        </g>
        <g id="Ellipse_2656" class="cls-8" data-name="Ellipse 2656" transform="translate(1011 1847)">
            <circle cx="3" cy="3" r="3" class="cls-10"/>
            <circle cx="3" cy="3" r="6.5" class="cls-11"/>
        </g>
        <g id="Ellipse_2653" class="cls-8" data-name="Ellipse 2653" transform="translate(886 1831)">
            <circle cx="3" cy="3" r="3" class="cls-10"/>
            <circle cx="3" cy="3" r="6.5" class="cls-11"/>
        </g>
        <g id="Ellipse_2634" class="cls-4" data-name="Ellipse 2634" transform="translate(1233 1805)">
            <circle cx="3" cy="3" r="3" class="cls-10"/>
            <circle cx="3" cy="3" r="8" class="cls-11"/>
        </g>
        <g id="Ellipse_2639" class="cls-3" data-name="Ellipse 2639" transform="translate(1093 1805)">
            <circle cx="3" cy="3" r="3" class="cls-10"/>
            <circle cx="3" cy="3" r="10.5" class="cls-11"/>
        </g>
        <g id="Ellipse_2667" class="cls-9" data-name="Ellipse 2667" transform="translate(1069 1773)">
            <circle cx="3" cy="3" r="3" class="cls-10"/>
            <circle cx="3" cy="3" r="7" class="cls-11"/>
        </g>
    </g>
</svg>
